<svg xmlns="http://www.w3.org/2000/svg" height="511pt" version="1.1" viewBox="-81 0 511 511.99952" width="511pt">
<g id="surface1">
<path d="M 345.277344 73.441406 L 343.898438 307.597656 L 341.265625 307.910156 C 331.464844 309.058594 322.117188 314.917969 316.886719 323.199219 C 312.425781 330.257812 310.796875 339.097656 312.398438 347.480469 L 313.277344 352.078125 L 308.726562 350.949219 C 304.976562 350.019531 300.015625 348.917969 294.9375 348.648438 C 294.148438 348.597656 293.347656 348.578125 292.566406 348.578125 C 285.917969 348.578125 279.976562 350.148438 275.386719 353.121094 C 267.308594 358.339844 262.875 368.621094 264.597656 378.121094 L 265.277344 381.878906 L 261.464844 381.648438 C 229.667969 379.730469 197.398438 378.757812 165.546875 378.757812 C 135.6875 378.757812 105.527344 379.621094 75.898438 381.300781 L 72.707031 381.488281 L 74.777344 4.898438 L 77.886719 5.03125 C 81.195312 5.179688 84.695312 5.359375 88.886719 5.597656 L 90.136719 5.679688 C 92.585938 5.820312 94.945312 5.960938 97.214844 6.058594 C 117.265625 6.988281 137.6875 7.449219 157.90625 7.449219 C 174.078125 7.449219 190.40625 7.148438 206.425781 6.558594 C 214.078125 6.269531 222.117188 5.910156 228.578125 5.609375 C 243.757812 4.929688 259.445312 4.21875 275.296875 4.097656 L 278.925781 4.070312 L 278.265625 7.648438 C 276.617188 16.53125 277.566406 23.210938 281.167969 28.058594 C 284.765625 32.941406 291.328125 35.839844 298.695312 35.839844 C 298.988281 35.839844 299.277344 35.839844 299.578125 35.828125 C 303.347656 35.71875 307.4375 34.929688 312.445312 33.328125 L 317.996094 31.570312 L 316.207031 37.109375 C 313.855469 44.417969 311.625 53.898438 315.386719 62.429688 C 317.585938 67.441406 322.066406 71.539062 327.65625 73.679688 C 330.335938 74.699219 333.117188 75.21875 335.917969 75.21875 C 337.828125 75.21875 339.695312 74.96875 341.457031 74.488281 Z M 345.277344 73.441406 " style=" stroke:none;fill-rule:nonzero;fill:rgb(68.627451%,47.45098%,47.45098%);fill-opacity:1;" />
<path d="M 165.570312 379.820312 C 135.328125 379.820312 104.78125 380.699219 74.773438 382.433594 C 58.289062 383.386719 43.585938 384.738281 30.601562 391.671875 C 14.011719 400.546875 6.285156 416.488281 7.226562 427.652344 L 7.242188 427.84375 L 7.285156 428.03125 C 9.582031 438.671875 13.578125 447.140625 19.507812 453.933594 C 32.757812 469.089844 52.203125 473.039062 69.476562 474.902344 L 72.703125 475.25 L 73.132812 459.890625 L 70.339844 459.621094 C 61.164062 458.746094 51.390625 457.125 42.089844 451.222656 C 36.261719 447.535156 31.425781 441.753906 28.824219 435.363281 C 26.003906 428.460938 26.035156 421.457031 28.910156 415.636719 C 35.464844 402.332031 52.789062 399.574219 67.148438 398.65625 C 96.421875 396.769531 126.230469 395.816406 155.738281 395.816406 C 196.625 395.816406 237.867188 397.644531 278.320312 401.25 C 283.769531 401.734375 290.160156 402.226562 296.265625 402.226562 C 310.59375 402.226562 320.78125 399.40625 328.324219 393.347656 L 334.027344 388.769531 L 326.75 388.027344 C 273.515625 382.582031 219.285156 379.820312 165.570312 379.820312 Z M 165.570312 379.820312 " style=" stroke:none;fill-rule:nonzero;fill:rgb(68.627451%,47.45098%,47.45098%);fill-opacity:1;" />
<path d="M 270.460938 459.230469 L 266.347656 459.515625 C 232.972656 461.832031 199.101562 463.003906 165.667969 463.003906 C 165.667969 463.003906 165.664062 463.003906 165.664062 463.003906 C 150.976562 463.003906 136.125 462.777344 121.519531 462.328125 L 118.460938 462.234375 L 118.285156 478.28125 L 121.167969 478.425781 C 147.78125 479.730469 174.863281 480.394531 201.664062 480.394531 C 223.746094 480.394531 246.109375 479.945312 268.125 479.054688 L 272.71875 478.871094 L 270.699219 474.738281 C 268.976562 471.214844 268.527344 467.019531 269.464844 463.230469 Z M 270.460938 459.230469 " style=" stroke:none;fill-rule:nonzero;fill:rgb(68.627451%,47.45098%,47.45098%);fill-opacity:1;" />
<path d="M 30.101562 390.734375 C 36.96875 387.066406 44.839844 384.667969 54.875 383.1875 L 57.402344 382.816406 L 62.640625 4.800781 L 59.445312 4.960938 C 40.382812 5.925781 26.964844 10.980469 18.472656 20.359375 C 6.183594 33.398438 5.136719 52.402344 5.105469 72.375 L 4.566406 391.953125 C 4.554688 398.726562 4.65625 403.832031 4.890625 408.511719 L 5.410156 418.847656 L 10.5 409.835938 C 14.863281 402.105469 22.1875 394.964844 30.101562 390.734375 Z M 30.101562 390.734375 " style=" stroke:none;fill-rule:nonzero;fill:rgb(68.627451%,47.45098%,47.45098%);fill-opacity:1;" />
<path d="M 295.957031 403.320312 C 289.621094 403.320312 283.582031 402.785156 278.222656 402.308594 C 237.785156 398.707031 196.5625 396.878906 155.707031 396.878906 C 126.226562 396.878906 96.457031 397.832031 67.222656 399.714844 C 53.140625 400.628906 36.167969 403.316406 29.867188 416.109375 C 27.402344 421.089844 27.199219 427.515625 29.308594 433.738281 C 31.566406 440.40625 36.3125 446.292969 42.667969 450.320312 C 51.707031 456.0625 61.132812 457.652344 69.976562 458.515625 L 73.175781 458.828125 L 73.574219 444.570312 C 73.59375 443.667969 73.59375 442.710938 73.585938 441.734375 L 73.554688 438.800781 L 73.507812 438.800781 L 73.476562 437.640625 C 73.394531 434.847656 73.328125 432.113281 73.453125 429.394531 L 73.546875 427.355469 L 73.789062 425.625 C 74.070312 423.59375 74.46875 421.90625 75.007812 420.46875 C 76.953125 415.25 81.160156 414.199219 87.316406 414.199219 C 87.796875 414.199219 88.269531 414.203125 88.757812 414.210938 L 90.085938 414.214844 C 90.320312 414.214844 94.542969 414.179688 94.542969 414.179688 C 109.546875 414.046875 117.316406 413.96875 118.207031 413.941406 L 118.441406 413.941406 C 118.730469 413.941406 118.964844 414.179688 118.964844 414.46875 L 118.476562 461.167969 L 121.414062 461.257812 C 136.070312 461.707031 150.960938 461.9375 165.679688 461.9375 C 210.03125 461.9375 254.828125 459.878906 298.832031 455.816406 L 303.6875 455.371094 L 301.097656 451.238281 C 299.5625 448.789062 298.421875 446.007812 297.707031 442.972656 L 297.296875 441.238281 L 297.078125 439.257812 C 296.605469 435 296.953125 430.671875 298.113281 426.394531 C 299.785156 420.210938 303.011719 414.089844 307.976562 407.6875 L 312.285156 402.132812 L 305.292969 402.867188 C 302.375 403.171875 299.320312 403.320312 295.957031 403.320312 Z M 295.957031 403.320312 " style=" stroke:none;fill-rule:nonzero;fill:rgb(100%,82.352941%,73.333333%);fill-opacity:1;" />
<path d="M 90.773438 415.28125 C 90.101562 415.28125 89.421875 415.28125 88.730469 415.269531 L 87.722656 415.261719 C 83.207031 415.261719 78.085938 415.261719 76.003906 420.84375 C 74.175781 425.773438 74.371094 431.953125 74.558594 437.925781 L 74.578125 438.566406 C 74.640625 440.695312 74.699219 442.707031 74.640625 444.613281 L 72.917969 505.609375 L 92.574219 492.800781 C 92.675781 492.734375 92.78125 492.699219 92.878906 492.699219 C 92.976562 492.699219 93.066406 492.726562 93.167969 492.789062 L 116.910156 507.515625 L 117.902344 415.035156 L 114.847656 415.058594 C 113.515625 415.066406 109.367188 415.109375 109.367188 415.109375 C 104.359375 415.160156 98.394531 415.207031 94.546875 415.238281 C 94.542969 415.238281 90.785156 415.28125 90.773438 415.28125 Z M 90.773438 415.28125 " style=" stroke:none;fill-rule:nonzero;fill:rgb(92.941176%,42.745098%,40%);fill-opacity:1;" />
<path d="M 327.96875 10.164062 L 328.015625 10.054688 L 325.308594 8.894531 C 325.304688 8.890625 325.296875 8.890625 325.292969 8.886719 C 325.289062 8.886719 325.289062 8.886719 325.285156 8.882812 L 322.492188 7.714844 L 322.457031 7.800781 C 315.191406 5.304688 307.382812 4.773438 299.941406 4.464844 C 294.359375 4.230469 288.503906 4.101562 282.535156 4.082031 L 280.082031 4.074219 L 279.585938 6.476562 C 277.648438 15.898438 278.425781 22.554688 282.023438 27.433594 C 287.0625 34.242188 296.160156 34.769531 298.832031 34.769531 C 299.070312 34.769531 299.308594 34.765625 299.542969 34.757812 C 306.285156 34.566406 312.726562 32.207031 318.96875 29.921875 C 318.988281 29.917969 319.007812 29.910156 319.027344 29.90625 L 319.117188 29.890625 C 319.265625 29.890625 319.414062 29.949219 319.515625 30.050781 C 319.664062 30.203125 319.707031 30.421875 319.636719 30.617188 C 315.660156 41.226562 312.128906 52.390625 316.359375 61.996094 C 318.449219 66.753906 322.707031 70.648438 328.03125 72.671875 C 330.589844 73.652344 333.238281 74.148438 335.898438 74.148438 C 338.585938 74.148438 341.140625 73.640625 343.484375 72.636719 L 345.296875 71.863281 L 345.367188 58.167969 C 345.492188 38.585938 344.226562 18.785156 327.96875 10.164062 Z M 327.96875 10.164062 " style=" stroke:none;fill-rule:nonzero;fill:rgb(97.647059%,84.705882%,53.72549%);fill-opacity:1;" />
<path d="M 340.433594 309.09375 C 331.199219 310.46875 322.734375 315.957031 317.789062 323.777344 C 315.726562 327.046875 314.273438 330.769531 313.5 334.667969 L 313.351562 334.648438 L 313.035156 337.6875 C 313.035156 337.695312 313.035156 337.699219 313.03125 337.703125 L 312.734375 340.617188 L 312.875 340.636719 C 312.8125 344.847656 313.539062 349.019531 315.046875 352.84375 C 315.117188 353.027344 315.082031 353.242188 314.945312 353.394531 C 314.84375 353.507812 314.699219 353.574219 314.546875 353.574219 C 314.503906 353.574219 314.457031 353.566406 314.410156 353.554688 C 308.09375 351.847656 301.566406 350.082031 294.882812 349.714844 C 294.148438 349.671875 293.367188 349.648438 292.550781 349.648438 C 286.128906 349.648438 280.398438 351.160156 275.96875 354.019531 C 268.167969 359.054688 263.859375 369.3125 265.730469 378.410156 C 265.730469 378.414062 265.742188 378.484375 265.71875 378.644531 L 265.25 381.863281 L 268.496094 382.074219 C 289.726562 383.449219 310.992188 385.253906 331.707031 387.441406 L 331.875 387.507812 L 334.039062 387.507812 L 334.933594 386.207031 C 342.84375 374.664062 343.597656 358.96875 343.6875 343.875 L 343.730469 336.675781 L 343.898438 308.574219 Z M 340.433594 309.09375 " style=" stroke:none;fill-rule:nonzero;fill:rgb(97.647059%,84.705882%,53.72549%);fill-opacity:1;" />
<path d="M 333.9375 455.152344 C 332.039062 454.542969 329.890625 454.25 327.375 454.25 C 324.984375 454.25 322.59375 454.507812 320.285156 454.757812 C 305.183594 456.382812 289.578125 457.796875 273.902344 458.96875 L 271.609375 459.140625 C 271.609375 459.140625 271.164062 461.453125 271.167969 461.453125 C 271.167969 461.453125 271.167969 461.449219 271.171875 461.4375 C 269.101562 466.457031 269.976562 472.703125 273.355469 476.972656 C 273.359375 476.976562 273.390625 477.019531 273.441406 477.113281 L 274.328125 478.800781 L 276.234375 478.714844 C 292.414062 477.984375 308.414062 477.03125 323.792969 475.890625 C 332.523438 475.238281 341.882812 471.941406 341.96875 464.648438 C 342.011719 460.117188 337.964844 456.441406 333.9375 455.152344 Z M 333.9375 455.152344 " style=" stroke:none;fill-rule:nonzero;fill:rgb(97.647059%,84.705882%,53.72549%);fill-opacity:1;" />
<path d="M 61.820312 382.332031 C 64.914062 382.019531 68.199219 381.757812 71.871094 381.535156 L 74.671875 381.363281 L 76.734375 4.945312 L 73.796875 4.871094 C 71.363281 4.808594 69.34375 4.777344 67.445312 4.777344 L 63.707031 4.792969 L 58.46875 382.671875 Z M 61.820312 382.332031 " style=" stroke:none;fill-rule:nonzero;fill:rgb(97.647059%,84.705882%,53.72549%);fill-opacity:1;" />
<path d="M 329.128906 6.167969 C 319.921875 1.582031 309.324219 0.785156 300.113281 0.398438 C 276.164062 -0.609375 251.882812 0.488281 228.402344 1.550781 C 221.148438 1.878906 213.648438 2.222656 206.277344 2.492188 C 170.152344 3.824219 133.527344 3.65625 97.414062 2 C 94.773438 1.878906 91.996094 1.714844 89.121094 1.542969 C 84.804688 1.289062 80.34375 1.027344 75.726562 0.863281 C 54.117188 0.109375 30.058594 1.511719 15.464844 17.621094 C 2.207031 31.675781 1.066406 52.375 1.03125 72.371094 L 0.5 391.953125 C 0.480469 404.636719 0.796875 417.027344 3.175781 428.375 C 3.230469 428.882812 3.296875 429.390625 3.378906 429.894531 C 3.445312 430.296875 3.582031 430.671875 3.765625 431.011719 C 6.0625 440.480469 9.9375 449.160156 16.445312 456.609375 C 30.453125 472.628906 50.167969 476.960938 69.597656 479.011719 L 68.820312 506.511719 C 68.78125 507.828125 69.476562 509.054688 70.625 509.695312 C 71.769531 510.335938 73.179688 510.292969 74.28125 509.574219 L 92.925781 497.425781 L 115.570312 511.46875 C 116.140625 511.820312 116.785156 512 117.433594 512 C 118.019531 512 118.605469 511.855469 119.132812 511.5625 C 120.253906 510.949219 120.953125 509.777344 120.964844 508.503906 L 121.246094 482.503906 C 147.980469 483.816406 174.839844 484.472656 201.726562 484.472656 C 242.605469 484.472656 283.535156 482.960938 324.09375 479.945312 C 337.746094 478.929688 345.949219 473.226562 346.035156 464.683594 C 346.101562 457.886719 340.457031 452.972656 335.179688 451.28125 C 330 449.625 324.605469 450.203125 319.847656 450.714844 C 315.503906 451.179688 311.160156 451.625 306.808594 452.050781 C 301.433594 446.257812 299.554688 436.636719 302.035156 427.457031 C 304.101562 419.820312 308.773438 412.269531 316.734375 403.703125 C 322.730469 401.921875 328.375 399.054688 333.132812 394.558594 C 346.421875 382.011719 347.644531 362.652344 347.753906 343.902344 L 349.441406 58.1875 C 349.53125 42.566406 349.6875 16.417969 329.128906 6.167969 Z M 325.972656 12.496094 C 341.308594 20.140625 342.484375 39.238281 342.371094 58.144531 L 342.300781 69.878906 C 338.355469 71.570312 333.570312 71.578125 329.105469 69.875 C 324.523438 68.125 320.878906 64.816406 319.109375 60.792969 C 315.328125 52.207031 318.6875 41.695312 322.445312 31.664062 C 322.933594 30.371094 322.617188 28.914062 321.648438 27.933594 C 320.675781 26.953125 319.21875 26.628906 317.921875 27.105469 C 311.914062 29.304688 305.703125 31.574219 299.457031 31.761719 C 294.5 31.902344 287.941406 30.378906 284.4375 25.648438 C 281.394531 21.535156 280.777344 15.59375 282.527344 7.078125 C 288.308594 7.101562 294.074219 7.214844 299.816406 7.457031 C 308.6875 7.832031 318.011719 8.527344 325.972656 12.496094 Z M 97.089844 9.058594 C 133.394531 10.730469 170.21875 10.894531 206.539062 9.554688 C 213.9375 9.285156 221.453125 8.941406 228.722656 8.613281 C 244.03125 7.921875 259.683594 7.222656 275.316406 7.097656 C 274.003906 14.171875 273.648438 22.949219 278.753906 29.851562 C 283.109375 35.730469 290.933594 39.097656 299.664062 38.828125 C 304.40625 38.6875 309.015625 37.574219 313.355469 36.191406 C 310.378906 45.425781 308.773438 54.863281 312.640625 63.640625 C 315.167969 69.382812 320.25 74.058594 326.582031 76.476562 C 329.628906 77.640625 332.804688 78.21875 335.917969 78.21875 C 338.085938 78.21875 340.21875 77.933594 342.257812 77.375 L 340.914062 304.925781 C 330.1875 306.1875 320.121094 312.460938 314.347656 321.597656 C 309.441406 329.363281 307.726562 339.035156 309.445312 348.042969 C 304.792969 346.882812 300.023438 345.917969 295.101562 345.652344 C 286.84375 345.210938 279.46875 346.914062 273.753906 350.601562 C 264.617188 356.503906 259.707031 367.96875 261.648438 378.65625 C 199.742188 374.921875 137.46875 374.789062 75.726562 378.304688 L 77.757812 8.03125 C 81.488281 8.1875 85.15625 8.390625 88.707031 8.597656 C 91.613281 8.769531 94.417969 8.9375 97.089844 9.058594 Z M 73.71875 7.871094 L 71.683594 378.539062 C 68.261719 378.753906 64.871094 379.007812 61.519531 379.347656 L 66.671875 7.777344 C 69.035156 7.769531 71.390625 7.804688 73.71875 7.871094 Z M 7.570312 391.964844 L 8.101562 72.382812 C 8.132812 53.035156 9.113281 34.65625 20.65625 22.417969 C 30.039062 12.058594 44.582031 8.71875 59.597656 7.960938 L 54.4375 380.21875 C 45.347656 381.558594 36.65625 383.828125 28.6875 388.089844 C 20.621094 392.398438 12.746094 399.75 7.890625 408.359375 C 7.617188 403.011719 7.5625 397.523438 7.570312 391.964844 Z M 21.769531 451.957031 C 15.710938 445.027344 12.21875 436.65625 10.214844 427.402344 C 9.347656 417.097656 16.96875 402.367188 32.019531 394.324219 C 44.464844 387.667969 58.824219 386.355469 74.949219 385.425781 C 158.542969 380.597656 243.125 382.488281 326.449219 391.003906 C 314.574219 400.539062 297.035156 399.902344 278.582031 398.257812 C 208.4375 392.011719 137.234375 391.136719 66.960938 395.65625 C 51.789062 396.632812 33.449219 399.632812 26.210938 414.308594 C 22.957031 420.910156 22.898438 428.789062 26.042969 436.503906 C 28.875 443.445312 34.140625 449.738281 40.488281 453.761719 C 49.519531 459.488281 58.929688 461.546875 70.0625 462.609375 L 69.796875 471.921875 C 51.984375 470.003906 34.058594 466.015625 21.769531 451.957031 Z M 94.742188 490.234375 C 94.171875 489.882812 93.523438 489.707031 92.878906 489.707031 C 92.207031 489.707031 91.535156 489.898438 90.949219 490.277344 L 76.074219 499.96875 L 77.640625 444.695312 C 77.703125 442.523438 77.628906 440.25 77.554688 437.84375 C 77.375 432.144531 77.191406 426.25 78.816406 421.886719 C 80.0625 418.542969 82.648438 418.222656 88.703125 418.273438 C 89.410156 418.28125 90.117188 418.28125 90.816406 418.277344 L 94.574219 418.246094 C 98.410156 418.210938 104.386719 418.160156 109.402344 418.113281 C 111.453125 418.089844 113.34375 418.074219 114.863281 418.058594 L 113.964844 502.15625 Z M 121.320312 475.429688 L 121.425781 465.335938 C 169.664062 466.8125 218.273438 465.859375 266.558594 462.503906 C 265.433594 467.019531 265.964844 471.890625 268.007812 476.0625 C 219.136719 478.027344 170.007812 477.820312 121.320312 475.429688 Z M 320.601562 457.742188 C 324.863281 457.285156 329.269531 456.808594 333.023438 458.011719 C 335.925781 458.945312 338.996094 461.574219 338.964844 464.613281 C 338.910156 469.886719 330.636719 472.371094 323.566406 472.894531 C 307.789062 474.070312 291.957031 475.003906 276.09375 475.71875 C 275.984375 475.503906 275.859375 475.300781 275.703125 475.105469 C 272.988281 471.664062 272.28125 466.628906 273.945312 462.574219 C 274.03125 462.371094 274.085938 462.164062 274.128906 461.957031 C 289.664062 460.796875 305.164062 459.398438 320.601562 457.742188 Z M 295.214844 425.613281 C 292.765625 434.667969 293.566406 444.84375 298.554688 452.828125 C 239.832031 458.246094 180.394531 460.074219 121.503906 458.265625 C 121.5625 452.636719 121.625 447.007812 121.683594 441.378906 C 121.726562 437.539062 122.386719 433.824219 122.289062 430.027344 C 122.152344 424.875 121.914062 419.730469 121.96875 414.578125 C 121.96875 414.542969 121.96875 414.503906 121.96875 414.46875 C 121.96875 412.523438 120.398438 410.945312 118.453125 410.933594 C 118.371094 410.929688 118.285156 410.9375 118.203125 410.941406 C 116.851562 410.980469 101.234375 411.117188 94.515625 411.175781 L 90.746094 411.207031 C 90.089844 411.214844 89.421875 411.210938 88.757812 411.207031 C 81.5 411.136719 72.375 412.839844 71.492188 421.847656 C 70.414062 432.8125 70.578125 444.429688 70.261719 455.523438 C 60.128906 454.535156 52.058594 452.726562 44.273438 447.792969 C 31.714844 439.828125 28.410156 425.832031 32.550781 417.433594 C 38.1875 406.011719 54.144531 403.566406 67.414062 402.710938 C 137.332031 398.210938 208.167969 399.082031 277.957031 405.296875 C 285.867188 406 295.777344 406.882812 305.609375 405.847656 C 300.351562 412.617188 296.992188 419.03125 295.214844 425.613281 Z M 332.460938 384.507812 C 332.445312 384.507812 332.433594 384.5 332.417969 384.5 C 311.242188 382.261719 289.988281 380.457031 268.683594 379.078125 C 268.75 378.664062 268.753906 378.234375 268.664062 377.800781 C 267.039062 369.871094 270.792969 360.929688 277.589844 356.539062 C 283.210938 352.910156 290.007812 352.445312 294.714844 352.710938 C 301.046875 353.054688 307.441406 354.78125 313.628906 356.453125 C 314.917969 356.800781 316.296875 356.390625 317.1875 355.394531 C 318.074219 354.398438 318.328125 352.984375 317.839844 351.742188 C 314.476562 343.222656 315.429688 333.121094 320.324219 325.375 C 324.820312 318.257812 332.554688 313.300781 340.871094 312.0625 L 340.683594 343.859375 C 340.597656 358.652344 339.8125 373.792969 332.460938 384.507812 Z M 332.460938 384.507812 " style=" stroke:none;fill-rule:nonzero;fill:rgb(0%,0%,0%);fill-opacity:1;" />
<path d="M 183.554688 227.75 C 183.550781 227.75 183.550781 227.75 183.546875 227.75 L 180.304688 227.761719 C 180.285156 227.691406 180.277344 227.621094 180.253906 227.550781 L 153.453125 149.320312 L 159.335938 149.34375 C 159.339844 149.34375 159.34375 149.34375 159.347656 149.34375 C 160.925781 149.34375 162.210938 148.066406 162.214844 146.484375 C 162.222656 144.902344 160.941406 143.613281 159.359375 143.605469 L 130.039062 143.492188 C 130.035156 143.492188 130.03125 143.492188 130.03125 143.492188 C 128.449219 143.492188 127.167969 144.769531 127.160156 146.351562 C 127.15625 147.933594 128.433594 149.222656 130.019531 149.230469 L 135.75 149.25 L 112.058594 227.464844 L 105.894531 227.65625 C 104.3125 227.703125 103.066406 229.027344 103.117188 230.609375 C 103.164062 232.164062 104.4375 233.390625 105.980469 233.390625 C 106.011719 233.390625 106.042969 233.390625 106.070312 233.390625 L 136.847656 232.441406 C 138.429688 232.390625 139.671875 231.070312 139.625 229.488281 C 139.574219 227.90625 138.28125 226.644531 136.667969 226.707031 L 129.5625 226.925781 L 137.914062 199.25 L 164.171875 198.320312 L 174.269531 227.78125 L 164.625 227.816406 C 163.039062 227.820312 161.761719 229.109375 161.769531 230.695312 C 161.773438 232.277344 163.054688 233.550781 164.636719 233.550781 C 164.640625 233.550781 164.644531 233.550781 164.648438 233.550781 L 183.5625 233.488281 C 185.148438 233.480469 186.425781 232.191406 186.421875 230.609375 C 186.417969 229.027344 185.136719 227.75 183.554688 227.75 Z M 118.105469 227.28125 L 141.660156 149.523438 C 141.6875 149.441406 141.691406 149.355469 141.710938 149.273438 L 146.996094 149.296875 L 123.769531 226.28125 C 123.6875 226.554688 123.660156 226.835938 123.660156 227.109375 Z M 139.664062 193.445312 L 150.359375 157.992188 L 162.234375 192.644531 Z M 139.664062 193.445312 " style=" stroke:none;fill-rule:nonzero;fill:rgb(0%,0%,0%);fill-opacity:1;" />
<path d="M 301.195312 221 C 299.625 220.820312 298.210938 221.984375 298.050781 223.5625 L 297.539062 228.570312 L 266.398438 228.640625 L 292.164062 154.539062 C 292.265625 154.242188 292.304688 153.9375 292.308594 153.636719 C 292.691406 153.148438 292.925781 152.539062 292.921875 151.875 C 292.917969 150.292969 291.636719 149.015625 290.054688 149.015625 C 290.050781 149.015625 290.050781 149.015625 290.046875 149.015625 C 286.082031 149.027344 282.527344 149.027344 279.175781 149.023438 C 278.832031 148.960938 278.492188 148.960938 278.164062 149.023438 C 274.824219 149.015625 271.671875 149.003906 268.527344 148.996094 C 262.46875 148.976562 256.390625 148.957031 248.9375 148.972656 L 248.921875 148.113281 C 248.894531 146.546875 247.613281 145.296875 246.054688 145.296875 C 246.035156 145.296875 246.019531 145.296875 246 145.296875 C 244.417969 145.324219 243.15625 146.632812 243.1875 148.214844 L 243.355469 157.683594 C 243.382812 159.25 244.660156 160.5 246.222656 160.5 C 246.238281 160.5 246.253906 160.5 246.273438 160.5 C 247.855469 160.472656 249.117188 159.164062 249.089844 157.582031 L 249.039062 154.707031 C 256.4375 154.691406 262.480469 154.710938 268.507812 154.730469 C 270.523438 154.738281 272.542969 154.746094 274.605469 154.75 L 248.695312 229 C 247.765625 229.472656 247.117188 230.433594 247.121094 231.550781 C 247.125 233.132812 248.410156 234.414062 249.988281 234.414062 C 249.992188 234.414062 249.992188 234.414062 249.996094 234.414062 L 296.953125 234.308594 L 296.753906 236.273438 C 296.59375 237.847656 297.742188 239.253906 299.316406 239.414062 C 299.414062 239.425781 299.515625 239.429688 299.613281 239.429688 C 301.066406 239.429688 302.3125 238.332031 302.460938 236.855469 L 303.757812 224.144531 C 303.917969 222.570312 302.773438 221.160156 301.195312 221 Z M 282.746094 154.761719 C 283.804688 154.761719 284.898438 154.757812 286.015625 154.757812 L 260.324219 228.652344 L 254.886719 228.664062 L 280.675781 154.757812 C 281.363281 154.761719 282.035156 154.761719 282.746094 154.761719 Z M 282.746094 154.761719 " style=" stroke:none;fill-rule:nonzero;fill:rgb(0%,0%,0%);fill-opacity:1;" />
<path d="M 236.003906 176.261719 C 233.3125 175.984375 230.550781 177.097656 228.613281 179.242188 C 226.816406 181.234375 226.074219 183.757812 226.570312 186.171875 C 226.894531 187.722656 228.410156 188.703125 229.960938 188.402344 C 231.511719 188.082031 232.507812 186.5625 232.1875 185.011719 C 232.011719 184.152344 232.605469 183.378906 232.871094 183.085938 C 233.566406 182.320312 234.558594 181.890625 235.417969 181.96875 C 237.335938 182.164062 239.085938 184.289062 239.164062 186.515625 C 239.242188 188.820312 237.824219 191.347656 235.546875 192.957031 C 232.101562 195.390625 227.023438 195.515625 223.46875 193.246094 C 221.316406 191.875 219.617188 189.742188 217.820312 187.484375 C 216.1875 185.433594 214.5 183.320312 212.328125 181.566406 C 207.507812 177.675781 200.800781 176.273438 194.820312 177.890625 C 190.96875 178.933594 187.851562 181.105469 186.039062 184.007812 C 183.777344 187.625 183.832031 192.363281 186.164062 195.527344 C 187.550781 197.40625 189.734375 198.644531 192.152344 198.921875 C 194.386719 199.179688 196.5 198.578125 198.097656 197.21875 C 199.304688 196.191406 199.449219 194.378906 198.421875 193.175781 C 197.398438 191.96875 195.585938 191.820312 194.378906 192.847656 C 193.878906 193.277344 193.179688 193.273438 192.8125 193.226562 C 191.992188 193.132812 191.214844 192.707031 190.78125 192.125 C 189.824219 190.828125 189.875 188.691406 190.902344 187.046875 C 191.945312 185.375 193.871094 184.089844 196.324219 183.425781 C 200.558594 182.28125 205.3125 183.277344 208.726562 186.03125 C 210.410156 187.386719 211.828125 189.171875 213.332031 191.054688 C 215.347656 193.585938 217.429688 196.199219 220.386719 198.082031 C 223.03125 199.769531 226.148438 200.605469 229.269531 200.605469 C 232.667969 200.605469 236.066406 199.613281 238.855469 197.640625 C 242.730469 194.902344 245.042969 190.5625 244.894531 186.316406 C 244.714844 181.171875 240.808594 176.753906 236.003906 176.261719 Z M 236.003906 176.261719 " style=" stroke:none;fill-rule:nonzero;fill:rgb(0%,0%,0%);fill-opacity:1;" />
</g>
</svg>