<svg height="511pt" viewBox="-81 0 511 511.99952" width="511pt" xmlns="http://www.w3.org/2000/svg"><path d="m329.128906 6.167969c-9.207031-4.585938-19.804687-5.382813-29.015625-5.769531-23.949219-1.007813-48.230469.089843-71.710937 1.152343-7.253906.328125-14.753906.671875-22.125.941407-36.125 1.332031-72.75 1.164062-108.863282-.492188-2.640624-.121094-5.417968-.285156-8.292968-.457031-4.316406-.253907-8.777344-.515625-13.394532-.679688-21.609374-.753906-45.667968.648438-60.261718 16.757813-13.257813 14.054687-14.398438 34.753906-14.433594 54.75l-.53125 319.582031c-.019531 12.683594.296875 25.074219 2.675781 36.421875.054688.507812.121094 1.015625.203125 1.519531.066406.402344.203125.777344.386719 1.117188 2.296875 9.46875 6.171875 18.148437 12.679687 25.597656 14.007813 16.019531 33.722657 20.351563 53.152344 22.402344l-.777344 27.5c-.039062 1.316406.65625 2.542969 1.804688 3.183593 1.144531.640626 2.554688.597657 3.65625-.121093l18.644531-12.148438 22.644531 14.042969c.570313.351562 1.214844.53125 1.863282.53125.585937 0 1.171875-.144531 1.699218-.4375 1.121094-.613281 1.820313-1.785156 1.832032-3.058594l.28125-26c26.734375 1.3125 53.59375 1.96875 80.480468 1.96875 40.878907 0 81.808594-1.511718 122.367188-4.527344 13.652344-1.015624 21.855469-6.71875 21.941406-15.261718.066406-6.796875-5.578125-11.710938-10.855468-13.402344-5.179688-1.65625-10.574219-1.078125-15.332032-.566406-4.34375.464844-8.6875.910156-13.039062 1.335937-5.375-5.792969-7.253906-15.414062-4.773438-24.59375 2.066406-7.636719 6.738282-15.1875 14.699219-23.753906 5.996094-1.78125 11.640625-4.648437 16.398437-9.144531 13.289063-12.546875 14.511719-31.90625 14.621094-50.65625l1.6875-285.714844c.089844-15.621094.246094-41.769531-20.3125-52.019531zm-3.15625 6.328125c15.335938 7.644531 16.511719 26.742187 16.398438 45.648437l-.070313 11.734375c-3.945312 1.691406-8.730469 1.699219-13.195312-.003906-4.582031-1.75-8.226563-5.058594-9.996094-9.082031-3.78125-8.585938-.421875-19.097657 3.335937-29.128907.488282-1.292968.171876-2.75-.796874-3.730468-.972657-.980469-2.429688-1.304688-3.726563-.828125-6.007813 2.199219-12.21875 4.46875-18.464844 4.65625-4.957031.140625-11.515625-1.382813-15.019531-6.113281-3.042969-4.113282-3.660156-10.054688-1.910156-18.570313 5.78125.023437 11.546875.136719 17.289062.378906 8.871094.375 18.195313 1.070313 26.15625 5.039063zm-228.882812-3.4375c36.304687 1.671875 73.128906 1.835937 109.449218.496094 7.398438-.269532 14.914063-.613282 22.183594-.941407 15.308594-.691406 30.960938-1.390625 46.59375-1.515625-1.3125 7.074219-1.667968 15.851563 3.4375 22.753906 4.355469 5.878907 12.179688 9.246094 20.910156 8.976563 4.742188-.140625 9.351563-1.253906 13.691407-2.636719-2.976563 9.234375-4.582031 18.671875-.714844 27.449219 2.527344 5.742187 7.609375 10.417969 13.941406 12.835937 3.046875 1.164063 6.222657 1.742188 9.335938 1.742188 2.167969 0 4.300781-.285156 6.339843-.84375l-1.34375 227.550781c-10.726562 1.261719-20.792968 7.535157-26.566406 16.671875-4.90625 7.765625-6.621094 17.4375-4.902344 26.445313-4.652343-1.160157-9.421874-2.125-14.34375-2.390625-8.257812-.441406-15.632812 1.261718-21.347656 4.949218-9.136718 5.902344-14.046875 17.367188-12.105468 28.054688-61.90625-3.734375-124.179688-3.867188-185.921876-.351562l2.03125-370.273438c3.730469.15625 7.398438.359375 10.949219.566406 2.90625.171875 5.710938.339844 8.382813.460938zm-23.371094-1.1875-2.035156 370.667968c-3.421875.214844-6.8125.46875-10.164063.808594l5.152344-371.570312c2.363281-.007813 4.71875.027344 7.046875.09375zm-66.148438 384.09375.53125-319.582032c.03125-19.347656 1.011719-37.726562 12.554688-49.964843 9.382812-10.359375 23.925781-13.699219 38.941406-14.457031l-5.160156 372.257812c-9.089844 1.339844-17.78125 3.609375-25.75 7.871094-8.066406 4.308594-15.941406 11.660156-20.796875 20.269531-.273437-5.347656-.328125-10.835937-.320313-16.394531zm14.199219 59.992187c-6.058593-6.929687-9.550781-15.300781-11.554687-24.554687-.867188-10.304688 6.753906-25.035156 21.804687-33.078125 12.445313-6.65625 26.804688-7.96875 42.929688-8.898438 83.59375-4.828125 168.175781-2.9375 251.5 5.578125-11.875 9.535156-29.414063 8.898438-47.867188 7.253906-70.144531-6.246093-141.347656-7.121093-211.621093-2.601562-15.171876.976562-33.511719 3.976562-40.75 18.652344-3.253907 6.601562-3.3125 14.480468-.167969 22.195312 2.832031 6.941406 8.097656 13.234375 14.445312 17.257813 9.03125 5.726562 18.441407 7.785156 29.574219 8.847656l-.265625 9.3125c-17.8125-1.917969-35.738281-5.90625-48.027344-19.964844zm72.972657 38.277344c-.570313-.351563-1.21875-.527344-1.863282-.527344-.671875 0-1.34375.191407-1.929687.570313l-14.875 9.691406 1.566406-55.273438c.0625-2.171874-.011719-4.445312-.085937-6.851562-.179688-5.699219-.363282-11.59375 1.261718-15.957031 1.246094-3.34375 3.832032-3.664063 9.886719-3.613281.707031.007812 1.414063.007812 2.113281.003906l3.757813-.03125c3.835937-.035156 9.8125-.085938 14.828125-.132813 2.050781-.023437 3.941406-.039062 5.460937-.054687l-.898437 84.097656zm26.578124-14.804687.105469-10.09375c48.238281 1.476562 96.847657.523437 145.132813-2.832032-1.125 4.515625-.59375 9.386719 1.449218 13.558594-48.871093 1.964844-98 1.757812-146.6875-.632812zm199.28125-17.6875c4.261719-.457032 8.667969-.933594 12.421876.269531 2.902343.933593 5.972656 3.5625 5.941406 6.601562-.054688 5.273438-8.328125 7.757813-15.398438 8.28125-15.777344 1.175781-31.609375 2.109375-47.472656 2.824219-.109375-.214844-.234375-.417969-.390625-.613281-2.714844-3.441407-3.421875-8.476563-1.757813-12.53125.085938-.203125.140626-.410157.183594-.617188 15.535156-1.160156 31.035156-2.558593 46.472656-4.214843zm-25.386718-32.128907c-2.449219 9.054688-1.648438 19.230469 3.339844 27.214844-58.722657 5.417969-118.160157 7.246094-177.050782 5.4375.058594-5.628906.121094-11.257813.179688-16.886719.042968-3.839844.703125-7.554687.605468-11.351562-.136718-5.152344-.375-10.296875-.320312-15.449219 0-.035156 0-.074219 0-.109375 0-1.945312-1.570312-3.523438-3.515625-3.535156-.082031-.003906-.167969.003906-.25.007812-1.351563.039063-16.96875.175782-23.6875.234375l-3.769531.03125c-.65625.007813-1.324219.003907-1.988282 0-7.257812-.070312-16.382812 1.632813-17.265624 10.640625-1.078126 10.964844-.914063 22.582032-1.230469 33.675782-10.132813-.988282-18.203125-2.796876-25.988281-7.730469-12.558594-7.964844-15.863282-21.960938-11.722657-30.359375 5.636719-11.421875 21.59375-13.867188 34.863281-14.722656 69.917969-4.5 140.753907-3.628907 210.542969 2.585937 7.910157.703125 17.820313 1.585937 27.652344.550781-5.257813 6.769532-8.617187 13.183594-10.394531 19.765625zm37.246094-41.105469c-.015626 0-.027344-.007812-.042969-.007812-21.175781-2.238281-42.429688-4.042969-63.734375-5.421875.066406-.414063.070312-.84375-.019532-1.277344-1.625-7.929687 2.128907-16.871093 8.925782-21.261719 5.621094-3.628906 12.417968-4.09375 17.125-3.828124 6.332031.34375 12.726562 2.070312 18.914062 3.742187 1.289063.347656 2.667969-.0625 3.558594-1.058594.886719-.996093 1.140625-2.410156.652344-3.652343-3.363282-8.519532-2.410156-18.621094 2.484375-26.367188 4.496093-7.117188 12.230469-12.074219 20.546875-13.3125l-.1875 31.796875c-.085938 14.792969-.871094 29.933594-8.222656 40.648437zm0 0"/><path d="m183.554688 227.75c-.003907 0-.003907 0-.007813 0l-3.242187.011719c-.019532-.070313-.027344-.140625-.050782-.210938l-26.800781-78.230469 5.882813.023438h.011718c1.578125 0 2.863282-1.277344 2.867188-2.859375.007812-1.582031-1.273438-2.871094-2.855469-2.878906l-29.320313-.113281c-.003906 0-.007812 0-.007812 0-1.582031 0-2.863281 1.277343-2.871094 2.859374-.003906 1.582032 1.273438 2.871094 2.859375 2.878907l5.730469.019531-23.691406 78.214844-6.164063.191406c-1.582031.046875-2.828125 1.371094-2.777343 2.953125.046874 1.554687 1.320312 2.78125 2.863281 2.78125h.089843l30.777344-.949219c1.582032-.050781 2.824219-1.371094 2.777344-2.953125-.050781-1.582031-1.34375-2.84375-2.957031-2.78125l-7.105469.21875 8.351562-27.675781 26.257813-.929688 10.097656 29.460938-9.644531.035156c-1.585938.003906-2.863281 1.292969-2.855469 2.878906.003907 1.582032 1.285157 2.855469 2.867188 2.855469h.011719l18.914062-.0625c1.585938-.007812 2.863281-1.296875 2.859375-2.878906s-1.285156-2.859375-2.867187-2.859375zm-65.449219-.46875 23.554687-77.757812c.027344-.082032.03125-.167969.050782-.25l5.285156.023437-23.226563 76.984375c-.082031.273438-.109375.554688-.109375.828125zm21.558593-33.835938 10.695313-35.453124 11.875 34.652343zm0 0"/><path d="m301.195312 221c-1.570312-.179688-2.984374.984375-3.144531 2.5625l-.511719 5.007812-31.140624.070313 25.765624-74.101563c.101563-.296874.140626-.601562.144532-.902343.382812-.488281.617187-1.097657.613281-1.761719-.003906-1.582031-1.285156-2.859375-2.867187-2.859375-.003907 0-.003907 0-.007813 0-3.964844.011719-7.519531.011719-10.871094.007813-.34375-.0625-.683593-.0625-1.011719 0-3.339843-.007813-6.492187-.019532-9.636718-.027344-6.058594-.019532-12.136719-.039063-19.589844-.023438l-.015625-.859375c-.027344-1.566406-1.308594-2.816406-2.867187-2.816406-.019532 0-.035157 0-.054688 0-1.582031.027344-2.84375 1.335937-2.8125 2.917969l.167969 9.46875c.027343 1.566406 1.304687 2.816406 2.867187 2.816406h.050782c1.582031-.027344 2.84375-1.335938 2.816406-2.917969l-.050782-2.875c7.398438-.015625 13.441407.003907 19.46875.023438 2.015626.007812 4.035157.015625 6.097657.019531l-25.910157 74.25c-.929687.472656-1.578124 1.433594-1.574218 2.550781.003906 1.582031 1.289062 2.863281 2.867187 2.863281h.007813l46.957031-.105468-.199219 1.964844c-.160156 1.574218.988282 2.980468 2.5625 3.140624.097656.011719.199219.015626.296875.015626 1.453125 0 2.699219-1.097657 2.847657-2.574219l1.296874-12.710938c.160157-1.574219-.984374-2.984375-2.5625-3.144531zm-18.449218-66.238281c1.058594 0 2.152344-.003907 3.269531-.003907l-25.691406 73.894532-5.4375.011718 25.789062-73.90625c.6875.003907 1.359375.003907 2.070313.003907zm0 0"/><path d="m236.003906 176.261719c-2.691406-.277344-5.453125.835937-7.390625 2.980469-1.796875 1.992187-2.539062 4.515624-2.042969 6.929687.324219 1.550781 1.839844 2.53125 3.390626 2.230469 1.550781-.320313 2.546874-1.839844 2.226562-3.390625-.175781-.859375.417969-1.632813.683594-1.925781.695312-.765626 1.6875-1.195313 2.546875-1.117188 1.917969.195312 3.667969 2.320312 3.746093 4.546875.078126 2.304687-1.339843 4.832031-3.617187 6.441406-3.445313 2.433594-8.523437 2.558594-12.078125.289063-2.152344-1.371094-3.851562-3.503906-5.648438-5.761719-1.632812-2.050781-3.320312-4.164063-5.492187-5.917969-4.820313-3.890625-11.527344-5.292968-17.507813-3.675781-3.851562 1.042969-6.96875 3.214844-8.78125 6.117187-2.261718 3.617188-2.207031 8.355469.125 11.519532 1.386719 1.878906 3.570313 3.117187 5.988282 3.394531 2.234375.257813 4.347656-.34375 5.945312-1.703125 1.207032-1.027344 1.351563-2.839844.324219-4.042969-1.023437-1.207031-2.835937-1.355469-4.042969-.328125-.5.429688-1.199218.425782-1.566406.378906-.820312-.09375-1.597656-.519531-2.03125-1.101562-.957031-1.296875-.90625-3.433594.121094-5.078125 1.042968-1.671875 2.96875-2.957031 5.421875-3.621094 4.234375-1.144531 8.988281-.148437 12.402343 2.605469 1.683594 1.355469 3.101563 3.140625 4.605469 5.023438 2.015625 2.53125 4.097657 5.144531 7.054688 7.027343 2.644531 1.6875 5.761719 2.523438 8.882812 2.523438 3.398438 0 6.796875-.992188 9.585938-2.964844 3.875-2.738281 6.1875-7.078125 6.039062-11.324219-.179687-5.144531-4.085937-9.5625-8.890625-10.054687zm0 0"/></svg>