<svg id="Capa_1" enable-background="new 0 0 512 512" height="512" viewBox="0 0 512 512" width="512" xmlns="http://www.w3.org/2000/svg"><g><g><path d="m103.743 338.79h27.941c4.572 0 8.279-3.707 8.279-8.279v-44.5h-36.22z" fill="#868eaf"/><path d="m57.174 279.457h49.674v151.781h-49.674z" fill="#bdd3dd"/><path d="m146.173 289.116h-106.673c-17.673 0-32-14.327-32-32v-68.464c0-17.673 14.327-32 32-32h106.673z" fill="#fa8ebb"/><path d="m116.161 156.652h30.011v132.464h-30.011z" fill="#f57fb0"/><path d="m139.964 156.652 182.137-82.789h5.174v298.043h-5.174l-182.137-82.79z" fill="#f9f5f3"/><path d="m298.299 84.682v276.404l23.802 10.82h5.174v-298.043h-5.174z" fill="#f9eae0"/><path d="m355.217 256c18.289 0 33.116-14.827 33.116-33.116s-14.827-33.116-33.116-33.116h-10.09v66.232z" fill="#868eaf"/><g fill="#fa8ebb"><path d="m115.406 454.695h-66.79c-4.418 0-8-3.582-8-8v-17.116c0-4.418 3.582-8 8-8h66.79c4.418 0 8 3.582 8 8v17.116c0 4.419-3.582 8-8 8z"/><path d="m347.217 388.464h-17.116c-4.418 0-8-3.582-8-8v-315.159c0-4.418 3.582-8 8-8h17.116c4.418 0 8 3.582 8 8v315.159c0 4.418-3.582 8-8 8z"/><path d="m115.127 421.579h-23.802c4.572 0 8.279 3.707 8.279 8.279v16.558c0 4.572-3.707 8.279-8.279 8.279h23.802c4.572 0 8.279-3.707 8.279-8.279v-16.558c0-4.572-3.707-8.279-8.279-8.279z"/></g></g><g><path d="m362.9 182.939v-36.099c0-4.142-3.357-7.5-7.5-7.5s-7.5 3.358-7.5 7.5v233.693c0 .276-.225.5-.5.5h-17.134c-.275 0-.5-.224-.5-.5v-8.566-298.2-8.567c0-.276.225-.5.5-.5h17.134c.275 0 .5.224.5.5v51.64c0 4.142 3.357 7.5 7.5 7.5s7.5-3.358 7.5-7.5v-51.64c0-8.547-6.953-15.5-15.5-15.5h-17.134c-8.547 0-15.5 6.953-15.5 15.5v3.737l-176.357 80.163h-98.909c-21.78 0-39.5 17.72-39.5 39.5v68.533c0 21.78 17.72 39.5 39.5 39.5h10.2v117.533h-1.067c-8.547 0-15.5 6.953-15.5 15.5v17.134c0 8.547 6.953 15.5 15.5 15.5h66.834c8.547 0 15.5-6.953 15.5-15.5v-17.133c0-8.547-6.953-15.5-15.5-15.5h-1.067v-67.833h17.35c8.703 0 15.783-7.081 15.783-15.784v-29.769l99.704 45.32c3.772 1.713 8.217.047 9.932-3.724 1.714-3.771.046-8.217-3.725-9.931l-105.911-48.142v-122.874l167.233-76.016v274.905l-31.093-14.133c-3.771-1.714-8.217-.047-9.932 3.724-1.714 3.771-.046 8.217 3.725 9.931l37.3 16.955v3.737c0 8.547 6.953 15.5 15.5 15.5h17.134c8.547 0 15.5-6.953 15.5-15.5v-117.739c18.833-3.53 33.133-20.085 33.133-39.928s-14.3-36.397-33.133-39.927zm-347.9 74.194v-68.533c0-13.509 10.99-24.5 24.5-24.5h93.033v117.533h-25.633-49.7-17.7c-13.51 0-24.5-10.99-24.5-24.5zm84.4 39.5v42.2 42.2h-34.7v-84.4zm16.567 133.034v17.133c0 .276-.225.5-.5.5h-66.834c-.275 0-.5-.224-.5-.5v-17.133c0-.276.225-.5.5-.5h8.567 49.7 8.566c.276 0 .501.224.501.5zm-51.267-15.5v-18.133h34.7v18.133zm67.833-83.617c0 .432-.352.784-.783.784h-17.35v-34.7h18.133zm230.367-83.172v-49.023c10.486 3.215 18.133 12.986 18.133 24.511s-7.647 21.297-18.133 24.512z"/><path d="m480.862 134.821c-2.606-3.22-7.328-3.716-10.548-1.111-3.22 2.606-3.717 7.329-1.11 10.548 17.925 22.143 27.796 50.06 27.796 78.609 0 28.548-9.871 56.465-27.795 78.608-2.607 3.22-2.109 7.942 1.11 10.548 1.389 1.124 3.057 1.671 4.714 1.671 2.186 0 4.353-.951 5.834-2.782 20.079-24.804 31.137-56.072 31.137-88.045s-11.059-63.243-31.138-88.046z"/><path d="m450.826 150.695c-2.798-3.055-7.542-3.264-10.597-.466-3.055 2.797-3.264 7.542-.466 10.596 15.543 16.975 24.103 39.008 24.103 62.042 0 23.035-8.561 45.07-24.105 62.045-2.798 3.055-2.589 7.799.466 10.596 1.439 1.318 3.254 1.969 5.063 1.969 2.03 0 4.054-.82 5.533-2.435 18.084-19.748 28.043-45.38 28.043-72.175.001-26.794-9.957-52.425-28.04-72.172z"/><path d="m419.722 166.643c-3.155-2.683-7.889-2.298-10.571.856-2.684 3.156-2.3 7.889.856 10.572 13.172 11.198 20.727 27.525 20.727 44.795 0 17.271-7.556 33.6-20.729 44.798-3.156 2.683-3.54 7.416-.857 10.572 1.484 1.746 3.594 2.643 5.719 2.643 1.717 0 3.443-.586 4.854-1.786 16.532-14.053 26.015-34.547 26.015-56.227-.003-21.677-9.483-42.17-26.014-56.223z"/><path d="m57.2 213.8h33.133c4.143 0 7.5-3.358 7.5-7.5s-3.357-7.5-7.5-7.5h-33.133c-4.143 0-7.5 3.358-7.5 7.5s3.358 7.5 7.5 7.5z"/><path d="m90.333 246.933c4.143 0 7.5-3.358 7.5-7.5s-3.357-7.5-7.5-7.5h-33.133c-4.143 0-7.5 3.358-7.5 7.5s3.357 7.5 7.5 7.5z"/></g></g></svg>