<svg id="Capa_1" enable-background="new 0 0 512 512" height="512" viewBox="0 0 512 512" width="512" xmlns="http://www.w3.org/2000/svg"><circle cx="177.488" cy="175.636" r="15.045"/><path d="m91.81 239.009c-10.045 0-18.217 8.172-18.217 18.217s8.172 18.216 18.217 18.216 18.217-8.172 18.217-18.216-8.172-18.217-18.217-18.217zm0 21.445c-1.781 0-3.229-1.448-3.229-3.228s1.448-3.229 3.229-3.229 3.229 1.449 3.229 3.229-1.448 3.228-3.229 3.228z"/><path d="m470.317 460.689h-1.287c-1.209-3.512-2.867-8.708-4.347-14.676-.996-4.018-5.061-6.469-9.078-5.47-4.016.996-6.465 5.06-5.469 9.077 1.023 4.126 2.115 7.882 3.115 11.069h-227.463v-23.331h68.705c4.139 0 7.494-3.355 7.494-7.494s-3.355-7.494-7.494-7.494h-76.199-51.523-13.737c-4.139 0-7.494 3.355-7.494 7.494s3.355 7.494 7.494 7.494h6.243v23.331h-6.453c-18.345 0-33.27-14.924-33.27-33.269v-12.592c0-18.345 14.924-33.269 33.27-33.269h300.42c-2.736 8.706-6.158 21.762-6.919 34.517-.247 4.131 2.902 7.68 7.033 7.927.152.009.303.013.454.013 3.934 0 7.236-3.068 7.473-7.047.812-13.595 5.248-28.135 7.747-35.409h1.285c4.139 0 7.494-3.355 7.494-7.494s-3.355-7.494-7.494-7.494h-51.437c1.66-.963 3.367-2.026 5.119-3.216 1.689-1.148 3.5-2.341 5.376-3.579 15.149-9.989 34.002-22.422 33.19-38.589-.603-11.986-12.91-19.708-25.94-27.883-8.494-5.33-19.064-11.962-20.317-17.221-1.082-4.541 5.508-15.028 10.321-22.684 8.017-12.755 16.307-25.945 11.688-37.634-4.53-11.46-19.402-15.432-33.785-19.273-9.384-2.506-21.064-5.625-23.436-9.87-2.516-4.502.932-16.339 3.703-25.85 4.123-14.153 8.386-28.787.983-38.35-6.92-8.938-20.822-6.906-35.542-4.753-6.277.918-17.924 2.622-20.563.975-2.064-2.498-.857-14.942-.207-21.648 1.397-14.417 2.718-28.036-6.218-34.23-9.393-6.511-22.638.098-35.448 6.485-5.648 2.817-16.124 8.046-19.139 7.318-2.82-1.614-5.977-13.801-7.676-20.366-3.654-14.109-7.106-27.436-17.773-30.005-11.339-2.732-21.104 8.645-30.537 19.65-2.918 3.402-5.673 6.617-8.307 9.251-4.952 4.951-8.912 10.859-11.67 17.291-.096 0-.192-.007-.288-.007-10.438 0-20.629 1.7-30.381 5.024-1.554-1.643-3.265-3.157-5.137-4.499l-20.846-14.945c-3.362-2.41-8.045-1.641-10.457 1.724-2.411 3.364-1.639 8.046 1.724 10.457l20.846 14.945c4.949 3.548 8.072 9.065 8.569 15.135.498 6.07-1.687 12.021-5.994 16.327-4.306 4.307-10.261 6.486-16.326 5.994-6.069-.497-11.586-3.621-15.134-8.57l-69.849-97.425c-.238-.333-.464-.647.1-1.211s.879-.337 1.212-.099l49.326 35.365c3.362 2.411 8.044 1.64 10.457-1.724 2.411-3.363 1.639-8.045-1.724-10.457l-49.327-35.365c-6.468-4.638-14.915-3.946-20.543 1.682-5.627 5.627-6.318 14.075-1.681 20.542l69.847 97.422c.367.511.747 1.01 1.137 1.498-1.933 3.828-3.624 7.78-5.013 11.822-3.948 11.491-10.786 21.636-19.782 29.341l-.826.711c-21.85 18.889-36.243 38.139-41.628 55.672-2.416 7.286-3.38 14.89-2.867 22.604 2.021 30.379 27.443 54.631 57.876 55.213.384.007.763.011 1.146.011 24.981-.002 47.3-15.625 55.768-39.175.696-1.934 2.124-3.487 3.916-4.26l.124-.053c1.557-.672 3.319-.735 4.958-.174 9.806 3.353 20.071 5.053 30.51 5.053 5.194 0 10.39-.426 15.489-1.269 6.526 38.048 3.237 71.244-9.341 93.76-2.287 4.093-2.963 8.712-2.036 13.109h-43.701c-26.609 0-48.257 21.648-48.257 48.257v12.592c0 26.609 21.648 48.257 48.257 48.257h6.453v25.847c0 3.964 2.195 7.54 5.73 9.334 3.531 1.794 7.716 1.454 10.918-.885l16.608-12.146 16.607 12.146h.001c1.836 1.343 3.996 2.026 6.171 2.026 1.616 0 3.24-.377 4.746-1.142 3.534-1.794 5.73-5.371 5.73-9.334v-25.847h244.529c4.139 0 7.494-3.355 7.494-7.494s-3.356-7.491-7.496-7.491zm-41.658-154.69c7.458 4.679 18.727 11.749 18.938 15.941.383 7.616-16.428 18.701-26.472 25.324-1.936 1.277-3.805 2.51-5.548 3.693-2.3 1.563-4.486 2.856-6.541 3.939 2.143-21.096.353-44.937-5.124-69.887 4.707 8.397 14.858 14.784 24.747 20.99zm-76.252-173.502c6.648-.972 18.991-2.777 21.569-.84 2.642 3.605-.945 15.917-3.567 24.921-3.311 11.364-6.693 23.046-4.314 32.418-6.066-10.392-12.578-20.228-19.478-29.391-7.68-10.2-15.982-19.626-24.846-28.255 7.341 4.535 18.686 2.893 30.636 1.147zm-57.916-49.835c5.935-2.958 16.877-8.414 20.128-7.583 1.643 2.827.535 14.257-.067 20.468-1.207 12.445-2.331 24.253 2.85 31.651-10.851-10.032-22.506-18.9-34.895-26.52-5.668-3.486-11.451-6.665-17.308-9.535 8.346 1.959 18.55-3.125 29.292-8.481zm-79.523-16.966c3.041-3.041 6.116-6.627 9.088-10.095 4.297-5.012 12.203-14.235 15.545-14.79 2.482 2.174 5.328 13.164 6.878 19.147 3.092 11.943 6.045 23.275 13.214 28.59-16.557-7.496-33.607-12.477-50.293-14.618-.225-.041-.452-.069-.678-.109 1.729-2.956 3.822-5.7 6.246-8.125zm-3.282 299.038c-.347-.591-1.046-2.161-.039-3.963 14.855-26.592 18.453-63.632 10.402-107.117-.572-3.086-2.317-5.751-4.917-7.505-2.609-1.761-5.752-2.385-8.843-1.756-5.19 1.054-10.53 1.589-15.874 1.589-8.786 0-17.419-1.429-25.661-4.247-5.163-1.767-10.755-1.557-15.737.59l-.123.053c-5.59 2.41-9.997 7.131-12.091 12.953-6.421 17.858-23.528 29.611-42.523 29.251-22.721-.434-41.7-18.541-43.209-41.224-.385-5.795.342-11.5 2.16-16.958.02-.06.039-.121.058-.181 4.537-14.854 17.374-31.73 37.111-48.793l.793-.683c11.017-9.438 19.386-21.835 24.2-35.849.818-2.382 1.759-4.728 2.806-7.029 4.011 1.995 8.408 3.238 12.989 3.613.98.08 1.955.12 2.929.12 9.429 0 18.489-3.725 25.219-10.454 7.424-7.424 11.19-17.683 10.333-28.148-.237-2.891-.831-5.704-1.729-8.398 7.256-2.143 14.784-3.232 22.473-3.232 4.838 0 9.702.449 14.458 1.335.142.027.285.049.428.067 46.538 5.905 94.144 35.754 127.345 79.848 10.652 14.149 20.359 30.003 28.848 47.125 1.309 2.638 3.962 4.166 6.72 4.166 1.118 0 2.254-.251 3.323-.782 3.708-1.839 5.223-6.335 3.385-10.043-1.844-3.718-3.757-7.366-5.709-10.969 6.639 6.74 18.197 9.847 29.452 12.853 9.267 2.475 21.96 5.864 23.713 10.302 1.83 4.63-5.26 15.912-10.438 24.149-6.258 9.956-12.224 19.457-12.698 28.464-2.961-11.389-6.657-22.953-11.082-34.544-1.477-3.868-5.812-5.804-9.674-4.328-3.867 1.476-5.805 5.807-4.328 9.674 15.707 41.145 21.864 81.617 17.337 113.959-.572 4.089-3.808 7.275-7.801 7.923h-171.559c-1.404-.339-2.162-1.345-2.447-1.831zm-.885 127.884-13.843-10.125c-2.635-1.927-6.214-1.927-8.848 0l-13.844 10.125v-55.262h36.535z"/><path d="m214.685 396.79c-4.139 0-7.494 3.355-7.494 7.494s3.355 7.494 7.494 7.494h159.616c4.139 0 7.494-3.355 7.494-7.494s-3.355-7.494-7.494-7.494z"/></svg>